<svg xmlns="http://www.w3.org/2000/svg" xmlns:xlink="http://www.w3.org/1999/xlink" viewBox="0 0 1500 1500" width="1500" height="1500" preserveAspectRatio="xMidYMid meet" style="width: 100%; height: 100%; transform: translate3d(0px, 0px, 0px); content-visibility: visible;" id="Bird Thinking"><defs><clipPath id="__lottie_element_1026"><rect width="1500" height="1500" x="0" y="0"/></clipPath><clipPath id="__lottie_element_1031"><path fill="#ffffff" clip-rule="nonzero" d=" M984.4500122070312,659.77197265625 C979.8690185546875,661.39599609375 979.0120239257812,673.9210205078125 982.5360107421875,687.7490234375 C986.0599975585938,701.5770263671875 992.6290283203125,711.4719848632812 997.2100219726562,709.8480224609375 C1001.791015625,708.2239990234375 1002.6480102539062,695.697998046875 999.1240234375,681.8699951171875 C995.5999755859375,668.0419921875 989.031005859375,658.1480102539062 984.4500122070312,659.77197265625" fill-opacity="1"/></clipPath><filter id="__lottie_element_1032"><feColorMatrix type="matrix" color-interpolation-filters="sRGB" values="0 0 0 0 0.6299999952316284 0 0 0 0 0.7329999804496765 0 0 0 0 0.2930000126361847 0 0 0 1 0" result="filter_result_0"/></filter><clipPath id="__lottie_element_1034"><path fill="#ffffff" clip-rule="nonzero" d=" M972.1270141601562,659.448974609375 C967.18701171875,660.406005859375 964.60498046875,672.6859741210938 966.3579711914062,686.8759765625 C968.1110229492188,701.0659790039062 973.5369873046875,711.7940063476562 978.4769897460938,710.8369750976562 C983.4169921875,709.8800048828125 986,697.6010131835938 984.2459716796875,683.4099731445312 C982.4920043945312,669.218994140625 977.0670166015625,658.4920043945312 972.1270141601562,659.448974609375" fill-opacity="1"/></clipPath><filter id="__lottie_element_1035"><feColorMatrix type="matrix" color-interpolation-filters="sRGB" values="0 0 0 0 0.6299999952316284 0 0 0 0 0.7329999804496765 0 0 0 0 0.2930000126361847 0 0 0 1 0" result="filter_result_0"/></filter><clipPath id="__lottie_element_1037"><path fill="#ffffff" clip-rule="nonzero" d=" M964.614013671875,663.2839965820312 C960.0390014648438,662.4769897460938 954.125,673.2509765625 951.405029296875,687.3480224609375 C948.6849975585938,701.4450073242188 950.18701171875,713.5269775390625 954.7620239257812,714.333984375 C959.3369750976562,715.1409912109375 965.2520141601562,704.3679809570312 967.9719848632812,690.27099609375 C970.6920166015625,676.1740112304688 969.1890258789062,664.0910034179688 964.614013671875,663.2839965820312" fill-opacity="1"/></clipPath><filter id="__lottie_element_1038"><feColorMatrix type="matrix" color-interpolation-filters="sRGB" values="0 0 0 0 0.6299999952316284 0 0 0 0 0.7329999804496765 0 0 0 0 0.2930000126361847 0 0 0 1 0" result="filter_result_0"/></filter><clipPath id="__lottie_element_1040"><path fill="#ffffff" clip-rule="nonzero" d=" M970.6649780273438,350.6910095214844 C967.0830078125,349.83599853515625 947.8499755859375,365.489990234375 958.1190185546875,371.3219909667969 C968.3880004882812,377.15399169921875 975.3419799804688,354.7850036621094 970.6649780273438,350.6910095214844" fill-opacity="1"/></clipPath><filter id="__lottie_element_1041"><feColorMatrix type="matrix" color-interpolation-filters="sRGB" values="0 0 0 0 0.6299999952316284 0 0 0 0 0.7329999804496765 0 0 0 0 0.2930000126361847 0 0 0 1 0" result="filter_result_0"/></filter><clipPath id="__lottie_element_1043"><path fill="#ffffff" clip-rule="nonzero" d=" M941.3330078125,339.47601318359375 C937.3330078125,342.47601318359375 937,376.14300537109375 952,370.47601318359375 C967,364.8089904785156 949.666015625,338.14300537109375 941.3330078125,339.47601318359375" fill-opacity="1"/></clipPath><filter id="__lottie_element_1044"><feColorMatrix type="matrix" color-interpolation-filters="sRGB" values="0 0 0 0 0.6299999952316284 0 0 0 0 0.7329999804496765 0 0 0 0 0.2930000126361847 0 0 0 1 0" result="filter_result_0"/></filter><path d="" fill-opacity="1"/><path d="" fill-opacity="1"/><clipPath id="__lottie_element_1052"><path fill="#ffffff" clip-rule="nonzero" d=" M961.3330078125,370.6669921875 C889.260009765625,370.6669921875 827,436.739013671875 827,524 C827,611.260986328125 889.427001953125,682 961.5,682 C1033.572998046875,682 1098,611.260986328125 1098,524 C1098,436.739013671875 1033.406005859375,370.6669921875 961.3330078125,370.6669921875" fill-opacity="1"/></clipPath><filter id="__lottie_element_1053"><feColorMatrix type="matrix" color-interpolation-filters="sRGB" values="0 0 0 0 0.6299999952316284 0 0 0 0 0.7329999804496765 0 0 0 0 0.2930000126361847 0 0 0 1 0" result="filter_result_0"/></filter><clipPath id="__lottie_element_1055"><path fill="#ffffff" clip-rule="nonzero" d=" M963,468 C879.5,389.5 828.1099853515625,437.6960144042969 841,524 C852.5,601 889.427001953125,668.5 961.5,668.5 C1033.572998046875,668.5 1075,600 1085,524 C1096.384033203125,437.4849853515625 1037.5,385.5 963,468" fill-opacity="1"/></clipPath><filter id="__lottie_element_1056"><feColorMatrix type="matrix" color-interpolation-filters="sRGB" values="0 0 0 0 0.6299999952316284 0 0 0 0 0.7329999804496765 0 0 0 0 0.2930000126361847 0 0 0 1 0" result="filter_result_0"/></filter><clipPath id="__lottie_element_1058"><path fill="#ffffff" clip-rule="nonzero" d=" M964,498 C891.927001953125,498 844.1099853515625,436.6960144042969 857,523 C868.5,600 889.427001953125,668.5 961.5,668.5 C1033.572998046875,668.5 1055.5,599 1065.5,523 C1076.884033203125,436.4849853515625 1036.072998046875,498 964,498" fill-opacity="1"/></clipPath><filter id="__lottie_element_1059"><feColorMatrix type="matrix" color-interpolation-filters="sRGB" values="0 0 0 0 0.6299999952316284 0 0 0 0 0.7329999804496765 0 0 0 0 0.2930000126361847 0 0 0 1 0" result="filter_result_0"/></filter><clipPath id="__lottie_element_1061"><path fill="#ffffff" clip-rule="nonzero" d=" M901.25,418.5 C867.9749755859375,418.5 841,445.4750061035156 841,478.75 C841,512.0250244140625 867.9749755859375,539 901.25,539 C934.5250244140625,539 961.5,512.0250244140625 961.5,478.75 C961.5,445.4750061035156 934.5250244140625,418.5 901.25,418.5" fill-opacity="1"/><path fill="#ffffff" clip-rule="nonzero" d=" M1022.25,418.5 C988.9749755859375,418.5 962,445.4750061035156 962,478.75 C962,512.0250244140625 988.9749755859375,539 1022.25,539 C1055.5250244140625,539 1082.5,512.0250244140625 1082.5,478.75 C1082.5,445.4750061035156 1055.5250244140625,418.5 1022.25,418.5" fill-opacity="1"/></clipPath><filter id="__lottie_element_1062"><feColorMatrix type="matrix" color-interpolation-filters="sRGB" values="0 0 0 0 0.6299999952316284 0 0 0 0 0.7329999804496765 0 0 0 0 0.2930000126361847 0 0 0 1 0" result="filter_result_0"/></filter><clipPath id="__lottie_element_1064"><path fill="#ffffff" clip-rule="nonzero" d=" M901.25,423 C870.4600219726562,423 845.5,447.9599914550781 845.5,478.75 C845.5,509.5400085449219 870.4600219726562,534.5 901.25,534.5 C932.0399780273438,534.5 957,509.5400085449219 957,478.75 C957,447.9599914550781 932.0399780273438,423 901.25,423" fill-opacity="1"/><path fill="#ffffff" clip-rule="nonzero" d=" M1022.25,423 C991.4600219726562,423 966.5,447.9599914550781 966.5,478.75 C966.5,509.5400085449219 991.4600219726562,534.5 1022.25,534.5 C1053.0400390625,534.5 1078,509.5400085449219 1078,478.75 C1078,447.9599914550781 1053.0400390625,423 1022.25,423" fill-opacity="1"/></clipPath><filter id="__lottie_element_1065"><feColorMatrix type="matrix" color-interpolation-filters="sRGB" values="0 0 0 0 0.6299999952316284 0 0 0 0 0.7329999804496765 0 0 0 0 0.2930000126361847 0 0 0 1 0" result="filter_result_0"/></filter><clipPath id="__lottie_element_1067"><path fill="#ffffff" clip-rule="nonzero" d=" M901.25,435 C877.0880126953125,435 857.5,454.5880126953125 857.5,478.75 C857.5,502.9119873046875 877.0869750976562,522.5 901.25,522.5 C925.4130249023438,522.5 945,502.9119873046875 945,478.75 C945,454.5880126953125 925.4119873046875,435 901.25,435" fill-opacity="1"/><path fill="#ffffff" clip-rule="nonzero" d=" M1021.25,435 C997.0869750976562,435 977.5,454.5880126953125 977.5,478.75 C977.5,502.9119873046875 997.0869750976562,522.5 1021.25,522.5 C1045.4119873046875,522.5 1065,502.9119873046875 1065,478.75 C1065,454.5880126953125 1045.4119873046875,435 1021.25,435" fill-opacity="1"/></clipPath><filter id="__lottie_element_1068"><feColorMatrix type="matrix" color-interpolation-filters="sRGB" values="0 0 0 0 0.9960784316062927 0 0 0 0 0.9960784316062927 0 0 0 0 0.9960784316062927 0 0 0 1 0" result="filter_result_0"/></filter><clipPath id="__lottie_element_1071"><path fill="#ffffff" clip-rule="nonzero" d=" M919,453.5 C905.1929931640625,453.5 894,464.6929931640625 894,478.5 C894,492.3070068359375 905.1929931640625,503.5 919,503.5 C932.8070068359375,503.5 944,492.3070068359375 944,478.5 C944,464.6929931640625 932.8070068359375,453.5 919,453.5" fill-opacity="1"/></clipPath><filter id="__lottie_element_1072"><feColorMatrix type="matrix" color-interpolation-filters="sRGB" values="0 0 0 0 0 0 0 0 0 0 0 0 0 0 0 0 0 0 1 0" result="filter_result_0"/></filter><g id="__lottie_element_1073"><g clip-path="url(#__lottie_element_1074)" filter="url(#__lottie_element_1075)" transform="matrix(1.4998469352722168,-0.02142900601029396,0.02142900601029396,1.4998469352722168,-706.1487426757812,-16.96504783630371)" opacity="1" style="display: block;"><rect width="1920" height="1080" fill="#000000"/></g></g><clipPath id="__lottie_element_1074"><path fill="#ffffff" clip-rule="nonzero" d=" M901.25,435 C877.0880126953125,435 857.5,454.5880126953125 857.5,478.75 C857.5,502.9119873046875 877.0869750976562,522.5 901.25,522.5 C925.4130249023438,522.5 945,502.9119873046875 945,478.75 C945,454.5880126953125 925.4119873046875,435 901.25,435" fill-opacity="1"/><path fill="#ffffff" clip-rule="nonzero" d=" M1021.25,435 C997.0869750976562,435 977.5,454.5880126953125 977.5,478.75 C977.5,502.9119873046875 997.0869750976562,522.5 1021.25,522.5 C1045.4119873046875,522.5 1065,502.9119873046875 1065,478.75 C1065,454.5880126953125 1045.4119873046875,435 1021.25,435" fill-opacity="1"/></clipPath><filter id="__lottie_element_1075"><feColorMatrix type="matrix" color-interpolation-filters="sRGB" values="0 0 0 0 0.9960784316062927 0 0 0 0 0.9960784316062927 0 0 0 0 0.9960784316062927 0 0 0 1 0" result="filter_result_0"/></filter><clipPath id="__lottie_element_1077"><path fill="#ffffff" clip-rule="nonzero" d=" M1038.5,453.5 C1024.6929931640625,453.5 1013.5,464.6929931640625 1013.5,478.5 C1013.5,492.3070068359375 1024.6929931640625,503.5 1038.5,503.5 C1052.3070068359375,503.5 1063.5,492.3070068359375 1063.5,478.5 C1063.5,464.6929931640625 1052.3070068359375,453.5 1038.5,453.5" fill-opacity="1"/></clipPath><filter id="__lottie_element_1078"><feColorMatrix type="matrix" color-interpolation-filters="sRGB" values="0 0 0 0 0 0 0 0 0 0 0 0 0 0 0 0 0 0 1 0" result="filter_result_0"/></filter><g id="__lottie_element_1079"><g clip-path="url(#__lottie_element_1080)" filter="url(#__lottie_element_1081)" transform="matrix(1.4998469352722168,-0.02142900601029396,0.02142900601029396,1.4998469352722168,-706.1487426757812,-16.96504783630371)" opacity="1" style="display: block;"><rect width="1920" height="1080" fill="#000000"/></g></g><clipPath id="__lottie_element_1080"><path fill="#ffffff" clip-rule="nonzero" d=" M901.25,435 C877.0880126953125,435 857.5,454.5880126953125 857.5,478.75 C857.5,502.9119873046875 877.0869750976562,522.5 901.25,522.5 C925.4130249023438,522.5 945,502.9119873046875 945,478.75 C945,454.5880126953125 925.4119873046875,435 901.25,435" fill-opacity="1"/><path fill="#ffffff" clip-rule="nonzero" d=" M1021.25,435 C997.0869750976562,435 977.5,454.5880126953125 977.5,478.75 C977.5,502.9119873046875 997.0869750976562,522.5 1021.25,522.5 C1045.4119873046875,522.5 1065,502.9119873046875 1065,478.75 C1065,454.5880126953125 1045.4119873046875,435 1021.25,435" fill-opacity="1"/></clipPath><filter id="__lottie_element_1081"><feColorMatrix type="matrix" color-interpolation-filters="sRGB" values="0 0 0 0 0.9960784316062927 0 0 0 0 0.9960784316062927 0 0 0 0 0.9960784316062927 0 0 0 1 0" result="filter_result_0"/></filter><clipPath id="__lottie_element_1084"><path fill="#ffffff" clip-rule="nonzero" d=" M908.25,461.75 C904.1079711914062,461.75 900.75,465.1080017089844 900.75,469.25 C900.75,473.3919982910156 904.1079711914062,476.75 908.25,476.75 C912.3920288085938,476.75 915.75,473.3919982910156 915.75,469.25 C915.75,465.1080017089844 912.3920288085938,461.75 908.25,461.75" fill-opacity="1"/></clipPath><filter id="__lottie_element_1085"><feColorMatrix type="matrix" color-interpolation-filters="sRGB" values="0 0 0 0 0.9960784316062927 0 0 0 0 0.9960784316062927 0 0 0 0 0.9960784316062927 0 0 0 1 0" result="filter_result_0"/></filter><g id="__lottie_element_1086"><g clip-path="url(#__lottie_element_1087)" filter="url(#__lottie_element_1088)" transform="matrix(1.4998469352722168,-0.02142900601029396,0.02142900601029396,1.4998469352722168,-706.1487426757812,-16.96504783630371)" opacity="1" style="display: block;"><rect width="1920" height="1080" fill="#000000"/></g></g><clipPath id="__lottie_element_1087"><path fill="#ffffff" clip-rule="nonzero" d=" M901.25,435 C877.0880126953125,435 857.5,454.5880126953125 857.5,478.75 C857.5,502.9119873046875 877.0869750976562,522.5 901.25,522.5 C925.4130249023438,522.5 945,502.9119873046875 945,478.75 C945,454.5880126953125 925.4119873046875,435 901.25,435" fill-opacity="1"/><path fill="#ffffff" clip-rule="nonzero" d=" M1021.25,435 C997.0869750976562,435 977.5,454.5880126953125 977.5,478.75 C977.5,502.9119873046875 997.0869750976562,522.5 1021.25,522.5 C1045.4119873046875,522.5 1065,502.9119873046875 1065,478.75 C1065,454.5880126953125 1045.4119873046875,435 1021.25,435" fill-opacity="1"/></clipPath><filter id="__lottie_element_1088"><feColorMatrix type="matrix" color-interpolation-filters="sRGB" values="0 0 0 0 0.9960784316062927 0 0 0 0 0.9960784316062927 0 0 0 0 0.9960784316062927 0 0 0 1 0" result="filter_result_0"/></filter><clipPath id="__lottie_element_1090"><path fill="#ffffff" clip-rule="nonzero" d=" M1027.75,461.75 C1023.6079711914062,461.75 1020.25,465.1080017089844 1020.25,469.25 C1020.25,473.3919982910156 1023.6079711914062,476.75 1027.75,476.75 C1031.8919677734375,476.75 1035.25,473.3919982910156 1035.25,469.25 C1035.25,465.1080017089844 1031.8919677734375,461.75 1027.75,461.75" fill-opacity="1"/></clipPath><filter id="__lottie_element_1091"><feColorMatrix type="matrix" color-interpolation-filters="sRGB" values="0 0 0 0 0.9960784316062927 0 0 0 0 0.9960784316062927 0 0 0 0 0.9960784316062927 0 0 0 1 0" result="filter_result_0"/></filter><g id="__lottie_element_1092"><g clip-path="url(#__lottie_element_1093)" filter="url(#__lottie_element_1094)" transform="matrix(1.4998469352722168,-0.02142900601029396,0.02142900601029396,1.4998469352722168,-706.1487426757812,-16.96504783630371)" opacity="1" style="display: block;"><rect width="1920" height="1080" fill="#000000"/></g></g><clipPath id="__lottie_element_1093"><path fill="#ffffff" clip-rule="nonzero" d=" M901.25,435 C877.0880126953125,435 857.5,454.5880126953125 857.5,478.75 C857.5,502.9119873046875 877.0869750976562,522.5 901.25,522.5 C925.4130249023438,522.5 945,502.9119873046875 945,478.75 C945,454.5880126953125 925.4119873046875,435 901.25,435" fill-opacity="1"/><path fill="#ffffff" clip-rule="nonzero" d=" M1021.25,435 C997.0869750976562,435 977.5,454.5880126953125 977.5,478.75 C977.5,502.9119873046875 997.0869750976562,522.5 1021.25,522.5 C1045.4119873046875,522.5 1065,502.9119873046875 1065,478.75 C1065,454.5880126953125 1045.4119873046875,435 1021.25,435" fill-opacity="1"/></clipPath><filter id="__lottie_element_1094"><feColorMatrix type="matrix" color-interpolation-filters="sRGB" values="0 0 0 0 0.9960784316062927 0 0 0 0 0.9960784316062927 0 0 0 0 0.9960784316062927 0 0 0 1 0" result="filter_result_0"/></filter><clipPath id="__lottie_element_1096"><path fill="#ffffff" clip-rule="nonzero" d=" M985,530.5 C982.25,523.25 945,524 938.5,530.5 C935,537 956.5,585.25 961.5,584.5 C966.5,585.25 988.5,537.75 985,530.5" fill-opacity="1"/></clipPath><filter id="__lottie_element_1097"><feColorMatrix type="matrix" color-interpolation-filters="sRGB" values="0 0 0 0 1 0 0 0 0 0.7310000061988831 0 0 0 0 0.21199999749660492 0 0 0 1 0" result="filter_result_0"/></filter><clipPath id="__lottie_element_1099"><path d="M0,0 L1920,0 L1920,1080 L0,1080z"/></clipPath><clipPath id="__lottie_element_1103"><path d="M0,0 L1920,0 L1920,1080 L0,1080z"/></clipPath><path/><path/><clipPath id="__lottie_element_1113"><path fill="#ffffff" clip-rule="nonzero" d=" M922.7860107421875,668.4420166015625 C919.25,668.5440063476562 916.52001953125,673.4010009765625 916.6900024414062,679.2890014648438 C916.8599853515625,685.177001953125 919.864990234375,689.8679809570312 923.4010009765625,689.7659912109375 C926.93701171875,689.6640014648438 929.6669921875,684.8090209960938 929.4970092773438,678.9199829101562 C929.3270263671875,673.031005859375 926.322021484375,668.3400268554688 922.7860107421875,668.4420166015625" fill-opacity="1"/><path fill="#ffffff" clip-rule="nonzero" d=" M934.75,663.8099975585938 C930.469970703125,663.8099975585938 927,670.5999755859375 927,678.9760131835938 C927,687.3519897460938 930.469970703125,694.1430053710938 934.75,694.1430053710938 C939.030029296875,694.1430053710938 942.5,687.3519897460938 942.5,678.9760131835938 C942.5,670.5999755859375 939.030029296875,663.8099975585938 934.75,663.8099975585938" fill-opacity="1"/><path fill="#ffffff" clip-rule="nonzero" d=" M946,668.4760131835938 C942.5020141601562,668.4760131835938 939.6669921875,673.2520141601562 939.6669921875,679.1430053710938 C939.6669921875,685.0339965820312 942.5020141601562,689.8099975585938 946,689.8099975585938 C949.4979858398438,689.8099975585938 952.3330078125,685.0339965820312 952.3330078125,679.1430053710938 C952.3330078125,673.2520141601562 949.4979858398438,668.4760131835938 946,668.4760131835938" fill-opacity="1"/><path fill="#ffffff" clip-rule="nonzero" d=" M974.7860107421875,668.4420166015625 C971.25,668.5440063476562 968.52001953125,673.4010009765625 968.6900024414062,679.2890014648438 C968.8599853515625,685.177001953125 971.864013671875,689.8679809570312 975.4000244140625,689.7659912109375 C978.93701171875,689.6640014648438 981.666015625,684.8090209960938 981.4959716796875,678.9199829101562 C981.3259887695312,673.031005859375 978.322021484375,668.3400268554688 974.7860107421875,668.4420166015625" fill-opacity="1"/><path fill="#ffffff" clip-rule="nonzero" d=" M986.7490234375,663.8099975585938 C982.468994140625,663.8099975585938 978.9990234375,670.5999755859375 978.9990234375,678.9760131835938 C978.9990234375,687.3519897460938 982.468994140625,694.1430053710938 986.7490234375,694.1430053710938 C991.0289916992188,694.1430053710938 994.4990234375,687.3519897460938 994.4990234375,678.9760131835938 C994.4990234375,670.5999755859375 991.0289916992188,663.8099975585938 986.7490234375,663.8099975585938" fill-opacity="1"/><path fill="#ffffff" clip-rule="nonzero" d=" M998,668.4760131835938 C994.5020141601562,668.4760131835938 991.6669921875,673.2520141601562 991.6669921875,679.1430053710938 C991.6669921875,685.0339965820312 994.5020141601562,689.8099975585938 998,689.8099975585938 C1001.4979858398438,689.8099975585938 1004.3330078125,685.0339965820312 1004.3330078125,679.1430053710938 C1004.3330078125,673.2520141601562 1001.4979858398438,668.4760131835938 998,668.4760131835938" fill-opacity="1"/></clipPath><filter id="__lottie_element_1114"><feColorMatrix type="matrix" color-interpolation-filters="sRGB" values="0 0 0 0 1 0 0 0 0 0.7310000061988831 0 0 0 0 0.21199999749660492 0 0 0 1 0" result="filter_result_0"/></filter><clipPath id="__lottie_element_1116"><path d="M0,0 L1920,0 L1920,1080 L0,1080z"/></clipPath><mask id="__lottie_element_1092_1" mask-type="alpha"><use xmlns:ns1="http://www.w3.org/1999/xlink" ns1:href="#__lottie_element_1092"/></mask><mask id="__lottie_element_1086_1" mask-type="alpha"><use xmlns:ns2="http://www.w3.org/1999/xlink" ns2:href="#__lottie_element_1086"/></mask><mask id="__lottie_element_1079_1" mask-type="alpha"><use xmlns:ns3="http://www.w3.org/1999/xlink" ns3:href="#__lottie_element_1079"/></mask><mask id="__lottie_element_1073_1" mask-type="alpha"><use xmlns:ns4="http://www.w3.org/1999/xlink" ns4:href="#__lottie_element_1073"/></mask><clipPath id="__lottie_element_1120"><path d="M0,0 L1920,0 L1920,1080 L0,1080z"/></clipPath><mask id="__lottie_element_1124"><path fill="#ffffff" clip-rule="nonzero" d=" M1043.85205078125,725.7249755859375 C1043.7889404296875,718.9869995117188 1037.155029296875,713.6209716796875 1029.0889892578125,713.698974609375 C1029.0889892578125,713.698974609375 912.0599975585938,715 912.0599975585938,715 C903.9829711914062,715.0889892578125 897.4949951171875,720.6199951171875 897.5759887695312,727.35400390625 C897.6500244140625,733.552978515625 903.3319702148438,738.4030151367188 910.5020141601562,739.0980224609375 C910.5020141601562,739.0980224609375 909.906982421875,739.4099731445312 909.906982421875,739.4099731445312 C909.906982421875,739.4099731445312 928.322021484375,751.3989868164062 928.322021484375,751.3989868164062 C928.322021484375,751.3989868164062 912.4769897460938,751.5809936523438 912.4769897460938,751.5809936523438 C904.3920288085938,751.6589965820312 897.8880004882812,757.1929931640625 897.9739990234375,763.9310302734375 C898.0599975585938,770.6619873046875 904.6640014648438,776.0499877929688 912.7630004882812,775.9500122070312 C912.7630004882812,775.9500122070312 922.5020141601562,775.8569946289062 922.5020141601562,775.8569946289062 C922.5020141601562,775.8569946289062 940.906982421875,787.8350219726562 940.906982421875,787.8350219726562 C940.906982421875,787.8350219726562 922.6290283203125,788.0280151367188 922.6290283203125,788.0280151367188 C915.8939819335938,788.1019897460938 910.4719848632812,793.6329956054688 910.5650024414062,800.3709716796875 C910.6580200195312,807.0869750976562 916.1649780273438,812.4910278320312 922.9000244140625,812.4199829101562 C922.9000244140625,812.4199829101562 1020.4130249023438,811.3300170898438 1020.4130249023438,811.3300170898438 C1027.1590576171875,811.2440185546875 1032.553955078125,805.7479858398438 1032.47998046875,799.0139770507812 C1032.406005859375,792.260986328125 1026.89794921875,786.875 1020.156005859375,786.9459838867188 C1020.156005859375,786.9459838867188 971.3699951171875,787.5 971.3699951171875,787.5 C971.3699951171875,787.5 959.0650024414062,775.43701171875 959.0650024414062,775.43701171875 C959.0650024414062,775.43701171875 1029.758056640625,774.656005859375 1029.758056640625,774.656005859375 C1037.845947265625,774.5780029296875 1044.343017578125,769.052001953125 1044.2650146484375,762.302978515625 C1044.18701171875,755.5490112304688 1037.56396484375,750.1829833984375 1029.498046875,750.2760009765625 C1029.498046875,750.2760009765625 958.7899780273438,751.0570068359375 958.7899780273438,751.0570068359375 C958.7899780273438,751.0570068359375 946.4660034179688,738.9940185546875 946.4660034179688,738.9940185546875 C946.4660034179688,738.9940185546875 1029.364013671875,738.0819702148438 1029.364013671875,738.0819702148438 C1037.4449462890625,738.0040283203125 1043.9150390625,732.4669799804688 1043.85205078125,725.7249755859375" fill-opacity="1"/></mask><filter id="__lottie_element_1125"><feColorMatrix type="matrix" color-interpolation-filters="sRGB" values="0 0 0 0 0.27799999713897705 0 0 0 0 0.28200000524520874 0 0 0 0 0.32199999690055847 0 0 0 1 0" result="filter_result_0"/></filter><mask id="__lottie_element_1127"><path fill="#ffffff" clip-rule="nonzero" d=" M965.698974609375,275.5320129394531 C871.447998046875,276.5769958496094 795.9249877929688,353.8139953613281 796.947021484375,448.0840148925781 C797.0659790039062,459.0539855957031 799.9810180664062,474.1159973144531 803.0050048828125,486.81500244140625 C806.281005859375,500.5740051269531 813.5880126953125,523.5170288085938 820.4119873046875,532.864013671875 C851.4409790039062,575.3619995117188 923.85302734375,639.2680053710938 906.43798828125,702.8809814453125 C906.43798828125,702.8809814453125 959.7639770507812,702.2899780273438 959.7639770507812,702.2899780273438 C959.7639770507812,702.2899780273438 963.489990234375,702.2340087890625 963.489990234375,702.2340087890625 C963.489990234375,702.2340087890625 1027.4820556640625,701.531005859375 1027.4820556640625,701.531005859375 C1018.2069702148438,670.4420166015625 1031.384033203125,639.1060180664062 1050.4940185546875,609.9719848632812 C1056.85302734375,600.2769775390625 1087.01904296875,568.2769775390625 1094.051025390625,560.5349731445312 C1121.9229736328125,529.8480224609375 1138.7530517578125,489.02398681640625 1138.251953125,444.28399658203125 C1137.196044921875,350.02899169921875 1059.947021484375,274.48699951171875 965.698974609375,275.5320129394531" fill-opacity="1"/></mask><filter id="__lottie_element_1128"><feColorMatrix type="matrix" color-interpolation-filters="sRGB" values="0 0 0 0 1 0 0 0 0 0.7289999723434448 0 0 0 0 0.21199999749660492 0 0 0 1 0" result="filter_result_0"/></filter><mask id="__lottie_element_1130"><path fill="#ffffff" clip-rule="nonzero" d=" M965.8679809570312,297.4280090332031 C881.2990112304688,298.3659973144531 813.5330200195312,367.66900634765625 814.4500122070312,452.2550048828125 C814.5570068359375,462.0979919433594 817.1729736328125,475.6130065917969 819.885986328125,487.0069885253906 C822.8259887695312,499.3529968261719 829.3820190429688,519.9390258789062 835.5050048828125,528.3259887695312 C863.3469848632812,566.4580078125 927.9149780273438,625.9910278320312 921.1939697265625,685.7659912109375 C921.1939697265625,685.7659912109375 1011.8040161132812,684.843017578125 1011.8040161132812,684.843017578125 C1011.9140014648438,656.989990234375 1024.8060302734375,623.6539916992188 1041.9520263671875,597.5130004882812 C1047.657958984375,588.8140258789062 1074.7249755859375,560.1010131835938 1081.0350341796875,553.1539916992188 C1106.0439453125,525.6190185546875 1121.14501953125,488.989013671875 1120.6949462890625,448.8450012207031 C1119.7469482421875,364.2720031738281 1050.4339599609375,296.489990234375 965.8679809570312,297.4280090332031" fill-opacity="1"/></mask><filter id="__lottie_element_1131"><feColorMatrix type="matrix" color-interpolation-filters="sRGB" values="0 0 0 0 1 0 0 0 0 0.7289999723434448 0 0 0 0 0.21199999749660492 0 0 0 1 0" result="filter_result_0"/></filter><clipPath id="__lottie_element_1133"><path fill="#ffffff" clip-rule="nonzero" d=" M913.4140014648438,485.989990234375 C913.4140014648438,485.989990234375 900.4140014648438,499.989990234375 900.4140014648438,499.989990234375 C900.4140014648438,499.989990234375 958.9140014648438,683.489990234375 958.9140014648438,683.489990234375 C958.9140014648438,683.489990234375 979.9140014648438,689.489990234375 979.9140014648438,689.489990234375 C979.9140014648438,689.489990234375 1024.9139404296875,520.489990234375 1024.9139404296875,520.489990234375 C1024.9139404296875,520.489990234375 1011.9140014648438,514.489990234375 1011.9140014648438,514.489990234375 C1011.9140014648438,514.489990234375 966.9140014648438,670.489990234375 966.9140014648438,670.489990234375 C966.9140014648438,670.489990234375 913.4140014648438,485.989990234375 913.4140014648438,485.989990234375" fill-opacity="1"/></clipPath><filter id="__lottie_element_1134"><feColorMatrix type="matrix" color-interpolation-filters="sRGB" values="0 0 0 0 1 0 0 0 0 1 0 0 0 0 1 0 0 0 1 0" result="filter_result_0"/></filter><clipPath id="__lottie_element_1136"><path fill="#ffffff" clip-rule="nonzero" d=" M987.9140014648438,468.489990234375 C987.9140014648438,468.489990234375 962.9140014648438,499.489990234375 962.9140014648438,499.489990234375 C962.9140014648438,499.489990234375 945.9140014648438,469.489990234375 945.9140014648438,469.489990234375 C945.9140014648438,469.489990234375 916.9140014648438,493.489990234375 916.9140014648438,493.489990234375 C916.9140014648438,493.489990234375 921.9140014648438,505.489990234375 921.9140014648438,505.489990234375 C921.9140014648438,505.489990234375 943.9140014648438,487.489990234375 943.9140014648438,487.489990234375 C943.9140014648438,487.489990234375 960.9140014648438,513.489990234375 960.9140014648438,513.489990234375 C960.9140014648438,513.489990234375 986.9140014648438,482.489990234375 986.9140014648438,482.489990234375 C986.9140014648438,482.489990234375 1007.9140014648438,512.489990234375 1007.9140014648438,512.489990234375 C1007.9140014648438,512.489990234375 1018.9140014648438,501.489990234375 1018.9140014648438,501.489990234375 C1018.9140014648438,501.489990234375 987.9140014648438,468.489990234375 987.9140014648438,468.489990234375" fill-opacity="1"/></clipPath><filter id="__lottie_element_1137"><feColorMatrix type="matrix" color-interpolation-filters="sRGB" values="0 0 0 0 1 0 0 0 0 1 0 0 0 0 1 0 0 0 1 0" result="filter_result_0"/></filter><clipPath id="__lottie_element_1139"><path fill="#ffffff" clip-rule="nonzero" d=" M901.25,418.5 C867.9749755859375,418.5 841,445.4750061035156 841,478.75 C841,512.0250244140625 868.27197265625,495.6669921875 901.5469970703125,495.6669921875 C934.822021484375,495.6669921875 961.5,512.0250244140625 961.5,478.75 C961.5,445.4750061035156 934.5250244140625,418.5 901.25,418.5" fill-opacity="1"/><path fill="#ffffff" clip-rule="nonzero" d=" M1022.25,418.5 C988.9749755859375,418.5 962,445.4750061035156 962,478.75 C962,512.0250244140625 988.9400024414062,499 1022.2150268554688,499 C1055.490966796875,499 1082.5,512.0250244140625 1082.5,478.75 C1082.5,445.4750061035156 1055.5250244140625,418.5 1022.25,418.5" fill-opacity="1"/></clipPath><filter id="__lottie_element_1140"><feColorMatrix type="matrix" color-interpolation-filters="sRGB" values="0 0 0 0 0.6299999952316284 0 0 0 0 0.7329999804496765 0 0 0 0 0.2930000126361847 0 0 0 1 0" result="filter_result_0"/></filter><mask id="__lottie_element_1142"><path fill="#ffffff" clip-rule="nonzero" d=" M965.8679809570312,297.4280090332031 C881.2990112304688,298.3659973144531 813.5330200195312,367.66900634765625 814.4500122070312,452.2550048828125 C814.5570068359375,462.0979919433594 817.1729736328125,475.6130065917969 819.885986328125,487.0069885253906 C822.8259887695312,499.3529968261719 829.3820190429688,519.9390258789062 835.5050048828125,528.3259887695312 C863.3469848632812,566.4580078125 927.9149780273438,625.9910278320312 921.1939697265625,685.7659912109375 C921.1939697265625,685.7659912109375 1011.8040161132812,684.843017578125 1011.8040161132812,684.843017578125 C1011.9140014648438,656.989990234375 1024.8060302734375,623.6539916992188 1041.9520263671875,597.5130004882812 C1047.657958984375,588.8140258789062 1074.7249755859375,560.1010131835938 1081.0350341796875,553.1539916992188 C1106.0439453125,525.6190185546875 1121.14501953125,488.989013671875 1120.6949462890625,448.8450012207031 C1119.7469482421875,364.2720031738281 1050.4339599609375,296.489990234375 965.8679809570312,297.4280090332031" fill-opacity="1"/></mask><filter id="__lottie_element_1143"><feColorMatrix type="matrix" color-interpolation-filters="sRGB" values="0 0 0 0 1 0 0 0 0 0.7289999723434448 0 0 0 0 0.21199999749660492 0 0 0 1 0" result="filter_result_0"/></filter><path d="" fill-opacity="1"/><path d="" fill-opacity="1"/><path d="" fill-opacity="1"/><path d="" fill-opacity="1"/><path d="" fill-opacity="1"/><filter id="__lottie_element_1146"><feColorMatrix type="matrix" color-interpolation-filters="sRGB" values="0 0 0 0 0.27799999713897705 0 0 0 0 0.28200000524520874 0 0 0 0 0.32199999690055847 0 0 0 1 0" result="filter_result_0"/></filter><path d="" fill-opacity="1"/><path d="" fill-opacity="1"/><path d="" fill-opacity="1"/><path d="" fill-opacity="1"/><path d="" fill-opacity="1"/><filter id="__lottie_element_1149"><feColorMatrix type="matrix" color-interpolation-filters="sRGB" values="0 0 0 0 0.27799999713897705 0 0 0 0 0.28200000524520874 0 0 0 0 0.32199999690055847 0 0 0 1 0" result="filter_result_0"/></filter><path d="" fill-opacity="1"/><path d="" fill-opacity="1"/><path d="" fill-opacity="1"/><path d="" fill-opacity="1"/><path d="" fill-opacity="1"/><filter id="__lottie_element_1152"><feColorMatrix type="matrix" color-interpolation-filters="sRGB" values="0 0 0 0 0.27799999713897705 0 0 0 0 0.28200000524520874 0 0 0 0 0.32199999690055847 0 0 0 1 0" result="filter_result_0"/></filter><clipPath id="__lottie_element_1154"><path fill="#ffffff" clip-rule="nonzero" d=" M901.25,418.5 C867.9749755859375,418.5 841,445.4750061035156 841,478.75 C841,512.0250244140625 868.27197265625,495.6669921875 901.5469970703125,495.6669921875 C934.822021484375,495.6669921875 961.5,512.0250244140625 961.5,478.75 C961.5,445.4750061035156 934.5250244140625,418.5 901.25,418.5" fill-opacity="1"/><path fill="#ffffff" clip-rule="nonzero" d=" M1022.25,418.5 C988.9749755859375,418.5 962,445.4750061035156 962,478.75 C962,512.0250244140625 988.9400024414062,499 1022.2150268554688,499 C1055.490966796875,499 1082.5,512.0250244140625 1082.5,478.75 C1082.5,445.4750061035156 1055.5250244140625,418.5 1022.25,418.5" fill-opacity="1"/></clipPath><filter id="__lottie_element_1155"><feColorMatrix type="matrix" color-interpolation-filters="sRGB" values="0 0 0 0 0.6299999952316284 0 0 0 0 0.7329999804496765 0 0 0 0 0.2930000126361847 0 0 0 1 0" result="filter_result_0"/></filter><path d="" fill-opacity="1"/><path d="" fill-opacity="1"/><path d="" fill-opacity="1"/><path d="" fill-opacity="1"/><path d="" fill-opacity="1"/><filter id="__lottie_element_1158"><feColorMatrix type="matrix" color-interpolation-filters="sRGB" values="0 0 0 0 0.27799999713897705 0 0 0 0 0.28200000524520874 0 0 0 0 0.32199999690055847 0 0 0 1 0" result="filter_result_0"/></filter></defs><g clip-path="url(#__lottie_element_1026)"><g clip-path="url(#__lottie_element_1031)" filter="url(#__lottie_element_1032)" transform="matrix(1.4998469352722168,-0.02142900601029396,0.02142900601029396,1.4998469352722168,-729.928466796875,-1.3737401962280273)" opacity="1" style="display: block;"><rect width="1920" height="1080" fill="#000000"/></g><g clip-path="url(#__lottie_element_1034)" filter="url(#__lottie_element_1035)" transform="matrix(1.4998469352722168,-0.02142900601029396,0.02142900601029396,1.4998469352722168,-723.050537109375,7.528911113739014)" opacity="1" style="display: block;"><rect width="1920" height="1080" fill="#000000"/></g><g clip-path="url(#__lottie_element_1037)" filter="url(#__lottie_element_1038)" transform="matrix(1.4998469352722168,-0.02142900601029396,0.02142900601029396,1.4998469352722168,-711.990966796875,-5.8804545402526855)" opacity="1" style="display: block;"><rect width="1920" height="1080" fill="#000000"/></g><g clip-path="url(#__lottie_element_1040)" filter="url(#__lottie_element_1041)" transform="matrix(1.4998469352722168,-0.02142900601029396,0.02142900601029396,1.4998469352722168,-699.5494384765625,-10.058621406555176)" opacity="1" style="display: block;"><rect width="1920" height="1080" fill="#000000"/></g><g clip-path="url(#__lottie_element_1043)" filter="url(#__lottie_element_1044)" transform="matrix(1.4998469352722168,-0.02142900601029396,0.02142900601029396,1.4998469352722168,-699.0280151367188,-8.56591796875)" opacity="1" style="display: block;"><rect width="1920" height="1080" fill="#000000"/></g><g transform="matrix(1.4998469352722168,-0.02142900601029396,0.02142900601029396,1.4998469352722168,-706.1487426757812,-16.96504783630371)" opacity="1" style="display: block;"><g fill="none" stroke-linecap="round" stroke-dashoffset="1" stroke="rgb(160,186,74)" stroke-width="100" opacity="1"><path d=" M1068.7550048828125,524 C1178.333984375,541.1430053710938 1077.6650390625,618.8330078125 1077.6650390625,618.8330078125" stroke-dasharray="1 0"/></g></g><g transform="matrix(1.4998469352722168,-0.02142900601029396,0.02142900601029396,1.4998469352722168,-706.1487426757812,-16.96504783630371)" opacity="1" style="display: block;"><g fill="none" stroke-linecap="round" stroke-dashoffset="1" stroke="rgb(160,186,74)" stroke-width="100" opacity="1"><path d=" M861.2349853515625,524 C790,572.5 789.7295532226562,416.6083984375 849.0668334960938,408.28692626953125" stroke-dasharray="1 0"/></g></g><g clip-path="url(#__lottie_element_1052)" filter="url(#__lottie_element_1053)" transform="matrix(1.4998469352722168,-0.02142900601029396,0.02142900601029396,1.4998469352722168,-706.1487426757812,-16.96504783630371)" opacity="1" style="display: block;"><rect width="1920" height="1080" fill="#000000"/></g><g clip-path="url(#__lottie_element_1055)" filter="url(#__lottie_element_1056)" transform="matrix(1.4998469352722168,-0.02142900601029396,0.02142900601029396,1.4998469352722168,-706.1487426757812,-16.96504783630371)" opacity="1" style="display: block;"><rect width="1920" height="1080" fill="#000000"/></g><g clip-path="url(#__lottie_element_1058)" filter="url(#__lottie_element_1059)" transform="matrix(1.4998469352722168,-0.02142900601029396,0.02142900601029396,1.4998469352722168,-706.1487426757812,-16.96504783630371)" opacity="1" style="display: block;"><rect width="1920" height="1080" fill="#000000"/></g><g clip-path="url(#__lottie_element_1061)" filter="url(#__lottie_element_1062)" transform="matrix(1.4998469352722168,-0.02142900601029396,0.02142900601029396,1.4998469352722168,-706.1487426757812,-16.96504783630371)" opacity="1" style="display: block;"><rect width="1920" height="1080" fill="#000000"/></g><g clip-path="url(#__lottie_element_1064)" filter="url(#__lottie_element_1065)" transform="matrix(1.4998469352722168,-0.02142900601029396,0.02142900601029396,1.4998469352722168,-706.1487426757812,-16.96504783630371)" opacity="1" style="display: block;"><rect width="1920" height="1080" fill="#000000"/></g><g clip-path="url(#__lottie_element_1067)" filter="url(#__lottie_element_1068)" transform="matrix(1.4998469352722168,-0.02142900601029396,0.02142900601029396,1.4998469352722168,-706.1487426757812,-16.96504783630371)" opacity="1" style="display: block;"><rect width="1920" height="1080" fill="#000000"/></g><g mask="url(#__lottie_element_1073_1)" style="display: block;"><g clip-path="url(#__lottie_element_1071)" filter="url(#__lottie_element_1072)" transform="matrix(1.1998776197433472,-0.01714320480823517,0.01714320480823517,1.1998776197433472,-462.0995178222656,82.47254943847656)" opacity="1"><rect width="1920" height="1080" fill="#000000"/></g></g><g mask="url(#__lottie_element_1079_1)" style="display: block;"><g clip-path="url(#__lottie_element_1077)" filter="url(#__lottie_element_1078)" transform="matrix(1.1998776197433472,-0.01714320480823517,0.01714320480823517,1.1998776197433472,-426.1031799316406,81.95825958251953)" opacity="1"><rect width="1920" height="1080" fill="#000000"/></g></g><g mask="url(#__lottie_element_1086_1)" style="display: block;"><g clip-path="url(#__lottie_element_1084)" filter="url(#__lottie_element_1085)" transform="matrix(0.7999183535575867,-0.011428803205490112,0.011428803205490112,0.7999183535575867,-68.88196563720703,268.06396484375)" opacity="1"><rect width="1920" height="1080" fill="#000000"/></g></g><g mask="url(#__lottie_element_1092_1)" style="display: block;"><g clip-path="url(#__lottie_element_1090)" filter="url(#__lottie_element_1091)" transform="matrix(0.7999183535575867,-0.011428803205490112,0.011428803205490112,0.7999183535575867,15.10946273803711,266.8639221191406)" opacity="1"><rect width="1920" height="1080" fill="#000000"/></g></g><g clip-path="url(#__lottie_element_1096)" filter="url(#__lottie_element_1097)" transform="matrix(1.4998469352722168,-0.02142900601029396,0.02142900601029396,1.4998469352722168,-706.1487426757812,-16.96504783630371)" opacity="1" style="display: block;"><rect width="1920" height="1080" fill="#000000"/></g><g clip-path="url(#__lottie_element_1099)" transform="matrix(0.9998979568481445,-0.01428600400686264,0.01428600400686264,0.9998979568481445,-221.15904235839844,223.84495544433594)" opacity="1" style="display: block;"/><g clip-path="url(#__lottie_element_1103)" transform="matrix(0.9998979568481445,-0.01428600400686264,0.01428600400686264,0.9998979568481445,-221.15904235839844,223.84495544433594)" opacity="1" style="display: block;"/><g style="display: none;"><rect width="1920" height="1080" fill="#000000"/></g><g style="display: none;"><rect width="1920" height="1080" fill="#000000"/></g><g clip-path="url(#__lottie_element_1113)" filter="url(#__lottie_element_1114)" transform="matrix(1.5,0,0,1.5,-691.5,-37.7139892578125)" opacity="1" style="display: block;"><rect width="1920" height="1080" fill="#000000"/></g><g clip-path="url(#__lottie_element_1139)" filter="url(#__lottie_element_1140)" transform="matrix(1.5,-0.00007847406232031062,0.00007847406232031062,1.5,-691.5541381835938,-37.63840103149414)" opacity="1" style="display: none;"><rect width="1920" height="1080" fill="#000000"/></g><g clip-path="url(#__lottie_element_1154)" filter="url(#__lottie_element_1155)" style="display: none;" transform="matrix(1.5,0,0,1.5,-691.5,-37.7139892578125)" opacity="1"><rect width="1920" height="1080" fill="#000000"/></g><g clip-path="url(#__lottie_element_1116)" transform="matrix(0.9998979568481445,-0.01428600400686264,0.01428600400686264,0.9998979568481445,-221.15904235839844,223.84495544433594)" opacity="1" style="display: block;"/><g style="display: none;"><rect width="100" height="100" fill="#ffffff"/></g><g clip-path="url(#__lottie_element_1120)" transform="matrix(0.5,0,0,0.5,262,6)" opacity="1" style="display: block;"><g mask="url(#__lottie_element_1124)" filter="url(#__lottie_element_1125)" transform="matrix(0.9976297616958618,-0.00066165323369205,0.00066165323369205,0.9976297616958618,-6.1470947265625,10.07366943359375)" opacity="1" style="display: block;"><rect width="1920" height="1080" fill="#ffffff"/></g><g mask="url(#__lottie_element_1127)" filter="url(#__lottie_element_1128)" transform="matrix(0.9976297616958618,-0.00066165323369205,0.00066165323369205,0.9976297616958618,-6.1470947265625,10.07366943359375)" opacity="1" style="display: block;"><rect width="1920" height="1080" fill="#ffffff"/></g><g mask="url(#__lottie_element_1130)" filter="url(#__lottie_element_1131)" transform="matrix(0.9976297616958618,-0.00066165323369205,0.00066165323369205,0.9976297616958618,-5.150788307189941,8.07774829864502)" opacity="1" style="display: block;"><rect width="1920" height="1080" fill="#ffffff"/></g><g mask="url(#__lottie_element_1142)" filter="url(#__lottie_element_1143)" style="display: none;" transform="matrix(1,-0.0000029016098324063933,0.0000029016098324063933,1,-6.916387557983398,5.512814521789551)" opacity="1"><rect width="1920" height="1080" fill="#ffffff"/></g><g clip-path="url(#__lottie_element_1133)" filter="url(#__lottie_element_1134)" transform="matrix(0.9976297616958618,-0.00066165323369205,0.00066165323369205,0.9976297616958618,-6.1470947265625,10.07366943359375)" opacity="1" style="display: block;"><rect width="1920" height="1080" fill="#ffffff"/></g><g clip-path="url(#__lottie_element_1136)" filter="url(#__lottie_element_1137)" transform="matrix(0.9976297616958618,-0.00066165323369205,0.00066165323369205,0.9976297616958618,-6.1470947265625,10.07366943359375)" opacity="1" style="display: block;"><rect width="1920" height="1080" fill="#ffffff"/></g><g filter="url(#__lottie_element_1146)" style="display: none;" transform="matrix(1,0,0,1,22,-70)" opacity="1"><g fill="none" stroke-linecap="round" stroke-dashoffset="1" stroke="rgb(255,255,255)" stroke-width="10" opacity="1"><path d=" M1064.0479736328125,372.2550048828125 C1064.0479736328125,372.2550048828125 1224.83203125,199.9029998779297 1224.83203125,199.9029998779297" stroke-dasharray="0 0 0 235.51617863769533 0 2357.0474243164062 0 0"/><path d=" M1145.9610595703125,509.9440002441406 C1145.9610595703125,509.9440002441406 1381.655029296875,512.1530151367188 1381.655029296875,512.1530151367188" stroke-dasharray="0 0 0 235.51575173339845 0 2357.0431518554688 0 0"/><path d=" M800.6119995117188,381.24200439453125 C800.6119995117188,381.24200439453125 629.39697265625,219.2480010986328 629.39697265625,219.2480010986328" stroke-dasharray="0 0 0 235.51599567871096 0 2357.0455932617188 0 0"/><path d=" M735.27099609375,509.7619934082031 C735.27099609375,509.7619934082031 504,509.3139953613281 504,509.3139953613281" stroke-dasharray="0 0 0 231.08640620117188 0 2312.7142333984375 0 0"/><path d=" M927.8259887695312,325.2040100097656 C927.8259887695312,325.2040100097656 931.697021484375,89.53099822998047 931.697021484375,89.53099822998047" stroke-dasharray="0 0 0 235.51622437744143 0 2357.047882080078 0 0"/></g></g><g filter="url(#__lottie_element_1149)" style="display: none;" transform="matrix(1,0,0,1,22,-70)" opacity="1"><g fill="none" stroke-linecap="round" stroke-dashoffset="1" stroke="rgb(255,255,255)" stroke-width="10" opacity="1"><path d=" M1064.0479736328125,372.2550048828125 C1064.0479736328125,372.2550048828125 1224.83203125,199.9029998779297 1224.83203125,199.9029998779297" stroke-dasharray="0 0 0 235.51617863769533 0 2357.0474243164062 0 0"/><path d=" M1145.9610595703125,509.9440002441406 C1145.9610595703125,509.9440002441406 1381.655029296875,512.1530151367188 1381.655029296875,512.1530151367188" stroke-dasharray="0 0 0 235.51575173339845 0 2357.0431518554688 0 0"/><path d=" M800.6119995117188,381.24200439453125 C800.6119995117188,381.24200439453125 629.39697265625,219.2480010986328 629.39697265625,219.2480010986328" stroke-dasharray="0 0 0 235.51599567871096 0 2357.0455932617188 0 0"/><path d=" M735.27099609375,509.7619934082031 C735.27099609375,509.7619934082031 504,509.3139953613281 504,509.3139953613281" stroke-dasharray="0 0 0 231.08640620117188 0 2312.7142333984375 0 0"/><path d=" M927.8259887695312,325.2040100097656 C927.8259887695312,325.2040100097656 931.697021484375,89.53099822998047 931.697021484375,89.53099822998047" stroke-dasharray="0 0 0 235.51622437744143 0 2357.047882080078 0 0"/></g></g><g filter="url(#__lottie_element_1152)" style="display: none;" transform="matrix(1,0,0,1,22,-70)" opacity="1"><g fill="none" stroke-linecap="round" stroke-dashoffset="1" stroke="rgb(255,255,255)" stroke-width="10" opacity="1"><path d=" M1064.0479736328125,372.2550048828125 C1064.0479736328125,372.2550048828125 1224.83203125,199.9029998779297 1224.83203125,199.9029998779297" stroke-dasharray="0 0 0 235.51617863769533 0 2357.0474243164062 0 0"/><path d=" M1145.9610595703125,509.9440002441406 C1145.9610595703125,509.9440002441406 1381.655029296875,512.1530151367188 1381.655029296875,512.1530151367188" stroke-dasharray="0 0 0 235.51575173339845 0 2357.0431518554688 0 0"/><path d=" M800.6119995117188,381.24200439453125 C800.6119995117188,381.24200439453125 629.39697265625,219.2480010986328 629.39697265625,219.2480010986328" stroke-dasharray="0 0 0 235.51599567871096 0 2357.0455932617188 0 0"/><path d=" M735.27099609375,509.7619934082031 C735.27099609375,509.7619934082031 504,509.3139953613281 504,509.3139953613281" stroke-dasharray="0 0 0 231.08640620117188 0 2312.7142333984375 0 0"/><path d=" M927.8259887695312,325.2040100097656 C927.8259887695312,325.2040100097656 931.697021484375,89.53099822998047 931.697021484375,89.53099822998047" stroke-dasharray="0 0 0 235.51622437744143 0 2357.047882080078 0 0"/></g></g><g filter="url(#__lottie_element_1158)" style="display: none;" transform="matrix(1,0,0,1,22,-70)" opacity="1"><g fill="none" stroke-linecap="round" stroke-dashoffset="1" stroke="rgb(255,255,255)" stroke-width="10" opacity="1"><path d=" M1064.0479736328125,372.2550048828125 C1064.0479736328125,372.2550048828125 1224.83203125,199.9029998779297 1224.83203125,199.9029998779297" stroke-dasharray="0 0 0 117.85237121581444 1 0 1 0 1 0 1 0 1 0 1 0 1 0 1 0 1 0 1 0 1 0 1 0 1 0 1 0 1 0 1 0 1 0 1 0 1 0 1 0 1 0 1 0 1 0 1 0 1 0 1 0 1 0 1 0 1 0 1 0 1 0 1 0 1 0 1 0 1 0 1 0 1 0 1 0 1 0 1 0 1 0 1 0 1 0 0 2357.0474243164062 0 0"/><path d=" M1145.9610595703125,509.9440002441406 C1145.9610595703125,509.9440002441406 1381.655029296875,512.1530151367188 1381.655029296875,512.1530151367188" stroke-dasharray="0 0 0 117.85215759276757 1 0 1 0 1 0 1 0 1 0 1 0 1 0 1 0 1 0 1 0 1 0 1 0 1 0 1 0 1 0 1 0 1 0 1 0 1 0 1 0 1 0 1 0 1 0 1 0 1 0 1 0 1 0 1 0 1 0 1 0 1 0 1 0 1 0 1 0 1 0 1 0 1 0 1 0 1 0 1 0 1 0 1 0 1 0 0 2357.0431518554688 0 0"/><path d=" M800.6119995117188,381.24200439453125 C800.6119995117188,381.24200439453125 629.39697265625,219.2480010986328 629.39697265625,219.2480010986328" stroke-dasharray="0 0 0 117.85227966308007 1 0 1 0 1 0 1 0 1 0 1 0 1 0 1 0 1 0 1 0 1 0 1 0 1 0 1 0 1 0 1 0 1 0 1 0 1 0 1 0 1 0 1 0 1 0 1 0 1 0 1 0 1 0 1 0 1 0 1 0 1 0 1 0 1 0 1 0 1 0 1 0 1 0 1 0 1 0 1 0 1 0 1 0 1 0 0 2357.0455932617188 0 0"/><path d=" M735.27099609375,509.7619934082031 C735.27099609375,509.7619934082031 504,509.3139953613281 504,509.3139953613281" stroke-dasharray="0 0 0 115.6357116699161 1 0 1 0 1 0 1 0 1 0 1 0 1 0 1 0 1 0 1 0 1 0 1 0 1 0 1 0 1 0 1 0 1 0 1 0 1 0 1 0 1 0 1 0 1 0 1 0 1 0 1 0 1 0 1 0 1 0 1 0 1 0 1 0 1 0 1 0 1 0 1 0 1 0 1 0 1 0 1 0 1 0 1 0 0 2312.7142333984375 0 0"/><path d=" M927.8259887695312,325.2040100097656 C927.8259887695312,325.2040100097656 931.697021484375,89.53099822998047 931.697021484375,89.53099822998047" stroke-dasharray="0 0 0 117.85239410399804 1 0 1 0 1 0 1 0 1 0 1 0 1 0 1 0 1 0 1 0 1 0 1 0 1 0 1 0 1 0 1 0 1 0 1 0 1 0 1 0 1 0 1 0 1 0 1 0 1 0 1 0 1 0 1 0 1 0 1 0 1 0 1 0 1 0 1 0 1 0 1 0 1 0 1 0 1 0 1 0 1 0 1 0 1 0 0 2357.047882080078 0 0"/></g></g></g></g></svg>